<svg width="1600" height="2169" viewBox="0 0 1600 2169" fill="none" xmlns="http://www.w3.org/2000/svg">
<path d="M186.522 1964.25L-611.101 664.637L247.471 708.161L547.688 1172.62L356.444 1476.48L-127.376 1869.6L-977.929 1091.27L-1316.17 2106.43L-804.233 1787.85L229.545 1142.6L-198.42 687.049L-299.468 1119.89L-595.345 2167.46L-804.233 1787.85L-1526 1646.58L-977.929 1091.27L229.734 1143L956.218 447.418L1297.48 1243.76L229.545 1142.6L536.933 1951.74L724.403 1454.77L575.05 580.091L1890.46 407.096L1240.11 803.213L1586.56 1264.57L2020.56 976.408L582.692 584.493L1296.82 1243.35L1183.6 362.872L1478.06 -186.33L2669.31 316.146L3020 -314.2L1760.35 181.672L2286.63 805.014L2020.94 976.408L1760.35 181.672L1183.41 363.072L2950.56 619.012L2462.02 -108.387L2286.63 805.014L2669.31 316.146L2984.62 414.2L160.576 -99.3821L1218.32 1648.18L836.49 -201.238L-677.806 389.086L378.899 659.234L506.269 -196.235C506.269 -196.235 -423.064 -361.326 -342.868 -251.265C-262.672 -141.205 378.899 659.234 378.899 659.234L-649.501 1044.45L1916.78 1504.7L1765.82 559.179L160.576 -99.3821" stroke="#73CBF3" stroke-width="0.7" stroke-miterlimit="22.93"/>
<path d="M1238.94 345.524L1735.57 189.39L1758.46 193.616L1795.82 307.596L1831.11 415.388L1796.23 420.308L1796.23 420.308L1682.33 436.507L1339.69 386.898L1238.94 345.524Z" fill="#62B12D" stroke="#73CCF4"/>
<path d="M377.379 658.077L-676.369 388.685L-36.5914 139.247C62.0762 263.478 165.761 393.425 244.799 492.341C284.349 541.837 317.728 583.563 341.219 612.915C352.965 627.591 362.239 639.173 368.576 647.087C371.745 651.044 374.179 654.083 375.822 656.134L377.379 658.077Z" fill="#62B12D" stroke="#73CCF4"/>
<path d="M156 1639L88.5 1693.5L359 1762.5L426.5 1742.5L156 1639Z" fill="#73CBF3"/>
</svg>
