<svg width="1600" height="5300" viewBox="0 0 1600 5300" fill="none" xmlns="http://www.w3.org/2000/svg">
<g clip-path="url(#clip0_3_17)">
<g opacity="0.8">
<path d="M251.185 3729.75L-529.842 2430.14L310.866 2473.67L604.836 2938.12L417.571 3241.99L-56.1819 3635.1L-889.037 2856.78L-1220.24 3871.93L-718.955 3553.36L293.312 2908.1L-125.748 2452.55L-224.693 2885.39L-514.414 3932.97L-718.955 3553.36L-1425.7 3412.08L-889.037 2856.78L293.497 2908.5L1004.87 2212.92L1339.02 3009.26L293.312 2908.1L594.304 3717.25L777.874 3220.28L631.628 2345.6L1919.67 2172.6L1282.85 2568.72L1622.09 3030.07L2047.07 2741.91L639.111 2350L1338.38 3008.86L1227.51 2128.38L1515.85 1579.17L2682.31 2081.65L3025.7 1451.3L1792.27 1947.18L2307.59 2570.52L2047.43 2741.91L1792.27 1947.18L1227.33 2128.58L2957.71 2384.52L2479.34 1657.12L2307.59 2570.52L2682.31 2081.65L2991.06 2179.7L225.779 1666.12L1261.51 3413.68L887.628 1564.27L-595.158 2154.59L439.558 2424.74L564.279 1569.27C564.279 1569.27 -345.718 1404.18 -267.19 1514.24C-188.662 1624.3 439.558 2424.74 439.558 2424.74L-567.443 2809.95L1945.44 3270.2L1797.62 2324.68L225.779 1666.12" stroke="#73CBF3" stroke-width="0.7" stroke-miterlimit="22.93"/>
<path d="M1281.71 2111.03L1768 1954.9L1790.4 1959.12L1826.99 2073.1L1861.54 2180.89L1827.39 2185.81L1827.39 2185.81L1715.86 2202.01L1380.36 2152.4L1281.71 2111.03Z" fill="#62B12D" fill-opacity="0.5" stroke="#73CCF4"/>
<path d="M438.059 2423.58L-593.748 2154.19L32.7083 1904.76C129.321 2028.98 230.845 2158.93 308.238 2257.84C346.964 2307.34 379.649 2349.06 402.651 2378.42C414.153 2393.09 423.234 2404.67 429.439 2412.59C432.542 2416.54 434.926 2419.58 436.534 2421.63L438.059 2423.58Z" fill="#62B12D" fill-opacity="0.5" stroke="#73CCF4"/>
<path d="M226 3409L158.5 3463.5L429 3532.5L496.5 3512.5L226 3409Z" fill="#73CBF3"/>
</g>
<g clip-path="url(#clip1_3_17)">
<g opacity="0.8">
<path d="M837.522 5371.68L39.8987 4072.57L898.471 4116.08L1198.69 4580.35L1007.44 4884.1L523.624 5277.06L-326.929 4499.04L-665.169 5513.8L-153.233 5195.35L880.545 4550.35L452.58 4094.98L351.532 4527.64L55.6549 5574.81L-153.233 5195.35L-875 5054.13L-326.929 4499.04L880.734 4550.75L1607.22 3855.44L1948.48 4651.46L880.545 4550.35L1187.93 5359.17L1375.4 4862.4L1226.05 3988.06L2541.46 3815.13L1891.11 4211.1L2237.56 4672.27L2671.56 4384.22L1233.69 3992.46L1947.82 4651.06L1834.6 3770.93L2129.06 3221.94L3320.31 3724.22L3671 3094.12L2411.35 3589.8L2937.63 4212.9L2671.94 4384.22L2411.35 3589.8L1834.41 3771.13L3601.56 4026.97L3113.02 3299.85L2937.63 4212.9L3320.31 3724.22L3635.62 3822.24L811.576 3308.86L1869.32 5055.73L1487.49 3207.04L-26.8058 3797.13L1029.9 4067.17L1157.27 3212.04C1157.27 3212.04 227.936 3047.02 308.132 3157.03C388.328 3267.05 1029.9 4067.17 1029.9 4067.17L1.4988 4452.23L2567.78 4912.3L2416.82 3967.16L811.576 3308.86" stroke="#73CBF3" stroke-width="0.7" stroke-miterlimit="22.93"/>
<path d="M1028.38 4066.02L-25.3686 3796.73L614.409 3547.39C713.076 3671.57 816.761 3801.47 895.799 3900.35C935.349 3949.82 968.728 3991.53 992.219 4020.87C1003.96 4035.54 1013.24 4047.12 1019.58 4055.03L1022.74 4058.98L1026.82 4064.07L1028.38 4066.02Z" stroke="#73CCF4"/>
</g>
</g>
<rect x="1263" y="2261" width="16" height="16" rx="8" fill="#73CBF3"/>
</g>
<g opacity="0.8" clip-path="url(#clip2_3_17)">
<path d="M182.522 1964.45L-615.101 664.837L243.471 708.361L543.688 1172.82L352.444 1476.68L-131.376 1869.8L-981.929 1091.47L-1320.17 2106.63L-808.233 1788.05L225.545 1142.8L-202.42 687.249L-303.468 1120.09L-599.345 2167.66L-808.233 1788.05L-1530 1646.78L-981.929 1091.47L225.734 1143.2L952.218 447.618L1293.48 1243.95L225.545 1142.8L532.933 1951.94L720.403 1454.97L571.05 580.291L1886.46 407.296L1236.11 803.413L1582.56 1264.77L2016.56 976.608L578.692 584.693L1292.82 1243.55L1179.6 363.072L1474.06 -186.13L2665.31 316.346L3016 -314L1756.35 181.872L2282.63 805.214L2016.94 976.608L1756.35 181.872L1179.41 363.272L2946.56 619.212L2458.02 -108.187L2282.63 805.214L2665.31 316.346L2980.62 414.4L156.576 -99.1821L1214.32 1648.38L832.49 -201.038L-681.806 389.286L374.899 659.434L502.269 -196.035C502.269 -196.035 -427.064 -361.126 -346.868 -251.065C-266.672 -141.005 374.899 659.434 374.899 659.434L-653.501 1044.65L1912.78 1504.9L1761.82 559.379L156.576 -99.1821" stroke="#73CBF3" stroke-width="0.7" stroke-miterlimit="22.93"/>
<path d="M1234.94 345.724L1731.57 189.59L1754.46 193.816L1791.82 307.796L1827.11 415.588L1792.23 420.508L1792.23 420.508L1678.33 436.707L1335.69 387.099L1234.94 345.724Z" fill="#62B12D" stroke="#73CCF4"/>
<path d="M373.379 658.278L-680.369 388.885L-40.5914 139.447C58.0762 263.678 161.761 393.625 240.799 492.541C280.349 542.037 313.728 583.763 337.219 613.115C348.965 627.791 358.239 639.374 364.576 647.287C367.745 651.244 370.179 654.284 371.822 656.334L373.379 658.278Z" fill="#62B12D" stroke="#73CCF4"/>
<path d="M152 1639.2L84.5 1693.7L355 1762.7L422.5 1742.7L152 1639.2Z" fill="#73CBF3"/>
</g>
<rect x="946" y="443" width="16" height="16" rx="8" fill="#73CBF3"/>
<rect x="1175" y="357" width="16" height="16" rx="8" fill="#73CBF3"/>
<rect x="1231" y="798" width="16" height="16" rx="8" fill="#73CBF3"/>
<g opacity="0.8" clip-path="url(#clip3_3_17)">
<path d="M54.5219 6217.25L-743.101 4914.33L115.471 4957.96L415.688 5423.6L224.444 5728.24L-259.376 6122.36L-1109.93 5342.05L-1448.17 6359.79L-936.233 6040.41L97.5449 5393.51L-330.42 4936.8L-431.468 5370.74L-727.345 6420.98L-936.233 6040.41L-1658 5898.77L-1109.93 5342.05L97.7336 5393.91L824.218 4696.56L1165.48 5494.92L97.5449 5393.51L404.933 6204.71L592.403 5706.47L443.05 4829.57L1758.46 4656.13L1108.11 5053.26L1454.56 5515.79L1888.56 5226.89L450.692 4833.98L1164.82 5494.52L1051.6 4611.8L1346.06 4061.2L2537.31 4564.95L2888 3933L1628.35 4430.13L2154.63 5055.06L1888.94 5226.89L1628.35 4430.13L1051.41 4612L2818.56 4868.59L2330.02 4139.34L2154.63 5055.06L2537.31 4564.95L2852.62 4663.25L28.5761 4148.36L1086.32 5900.37L704.49 4046.25L-809.806 4638.08L246.899 4908.91L374.269 4051.27C374.269 4051.27 -555.064 3885.75 -474.868 3996.09C-394.672 4106.44 246.899 4908.91 246.899 4908.91L-781.501 5295.1L1784.78 5756.53L1633.82 4808.6L28.5761 4148.36" stroke="#73CBF3" stroke-width="0.7" stroke-miterlimit="22.93"/>
<path d="M1106.94 4594.4L1603.57 4437.87L1626.46 4442.11L1663.82 4556.38L1699.11 4664.45L1664.23 4669.38L1664.23 4669.38L1550.33 4685.62L1207.69 4635.88L1106.94 4594.4Z" fill="#62B12D" fill-opacity="0.5" stroke="#73CCF4"/>
<path d="M245.381 4907.75L-808.373 4637.67L-168.592 4387.6C-69.9241 4512.15 33.7601 4642.43 112.799 4741.59C152.348 4791.21 185.727 4833.05 209.219 4862.47C220.964 4877.19 230.238 4888.8 236.576 4896.73L239.942 4900.95L243.821 4905.8L245.381 4907.75Z" stroke="#73CCF4"/>
</g>
<defs>
<clipPath id="clip0_3_17">
<rect width="1600" height="2482" fill="white" transform="translate(0 1451)"/>
</clipPath>
<clipPath id="clip1_3_17">
<rect width="1603" height="2012" fill="white" transform="translate(-3 3094)"/>
</clipPath>
<clipPath id="clip2_3_17">
<rect width="1600" height="2168" fill="white"/>
</clipPath>
<clipPath id="clip3_3_17">
<rect width="1599" height="1367" fill="white" transform="translate(1 3933)"/>
</clipPath>
</defs>
</svg>
