<svg width="298" height="121" viewBox="0 0 298 121" fill="none" xmlns="http://www.w3.org/2000/svg">
<path d="M9.6693 22.4234L45.8732 48.1687L116.945 5.37305L120.639 11.483L47.5498 55.4797L45.5589 56.7069L43.6203 55.3492L5.53021 28.22L9.6693 22.4234Z" fill="#73CCF4"/>
<path d="M48.9904 51.0151L68.376 95.3774L162.58 108.302L161.637 115.378L65.442 102.166L63.4248 101.905L62.6389 100.051L42.4412 53.8612L48.9904 51.0151Z" fill="#73CCF4"/>
<path fill-rule="evenodd" clip-rule="evenodd" d="M6.31589 17.9588C7.77641 17.7268 9.27315 17.9308 10.6176 18.5451C11.962 19.1594 13.0939 20.1566 13.8707 21.411C14.6475 22.6654 15.0345 24.1208 14.9829 25.594C14.9313 27.0672 14.4434 28.4923 13.5807 29.6896C12.718 30.8869 11.519 31.8029 10.1349 32.3223C8.75077 32.8416 7.24339 32.9411 5.80267 32.6081C4.36195 32.2751 3.05234 31.5245 2.03882 30.451C1.0253 29.3775 0.353222 28.029 0.107256 26.5754C-0.227178 24.6263 0.227611 22.6246 1.37187 21.0093C2.51613 19.394 4.25645 18.297 6.2111 17.9588" fill="#73CCF4"/>
<path fill-rule="evenodd" clip-rule="evenodd" d="M44.4322 45.2184C45.893 44.9657 47.3961 45.1507 48.7514 45.7499C50.1066 46.3491 51.2531 47.3356 52.0456 48.5845C52.838 49.8335 53.2409 51.2887 53.2032 52.766C53.1655 54.2432 52.689 55.6761 51.8338 56.8833C50.9787 58.0905 49.7834 59.0177 48.3993 59.5474C47.0153 60.0772 45.5046 60.1858 44.0586 59.8594C42.6126 59.533 41.2963 58.7863 40.2762 57.7139C39.2562 56.6415 38.5783 55.2916 38.3283 53.835C38.1556 52.8691 38.1768 51.8787 38.3908 50.9211C38.6048 49.9635 39.0073 49.0577 39.5751 48.2563C40.1428 47.4549 40.8644 46.7737 41.6982 46.2522C42.5319 45.7307 43.4612 45.3793 44.4322 45.2184" fill="#73CCF4"/>
<path fill-rule="evenodd" clip-rule="evenodd" d="M117.26 0.829945C118.719 0.578329 120.221 0.763634 121.575 1.36244C122.929 1.96125 124.075 2.94668 124.867 4.19421C125.659 5.44173 126.063 6.89536 126.026 8.37139C125.99 9.84741 125.516 11.2796 124.663 12.4869C123.81 13.6943 122.618 14.6226 121.236 15.1545C119.854 15.6865 118.345 15.7983 116.899 15.4757C115.454 15.1531 114.137 14.4106 113.114 13.3422C112.092 12.2737 111.41 10.9271 111.156 9.47263C110.821 7.52048 111.275 5.51557 112.419 3.89609C113.562 2.2766 115.303 1.17425 117.26 0.829945" fill="#73CCF4"/>
<path fill-rule="evenodd" clip-rule="evenodd" d="M64.8394 89.8939C66.3002 89.6412 67.8033 89.8262 69.1586 90.4254C70.5139 91.0246 71.6603 92.0111 72.4528 93.2601C73.2452 94.509 73.6481 95.9642 73.6104 97.4415C73.5728 98.9188 73.0962 100.352 72.241 101.559C71.3859 102.766 70.1906 103.693 68.8066 104.223C67.4225 104.753 65.9118 104.861 64.4658 104.535C63.0198 104.209 61.7035 103.462 60.6834 102.389C59.6634 101.317 58.9855 99.9671 58.7355 98.5105C58.4082 96.5624 58.8659 94.5642 60.0089 92.9506C61.152 91.337 62.888 90.2385 64.8394 89.8939Z" fill="#73CCF4"/>
<path fill-rule="evenodd" clip-rule="evenodd" d="M163.26 105.613C164.72 105.335 166.229 105.497 167.597 106.076C168.964 106.656 170.127 107.628 170.939 108.868C171.751 110.108 172.175 111.561 172.156 113.042C172.137 114.523 171.677 115.965 170.834 117.184C169.991 118.404 168.804 119.346 167.422 119.891C166.041 120.437 164.528 120.56 163.076 120.246C161.624 119.932 160.298 119.195 159.268 118.128C158.237 117.062 157.548 115.713 157.288 114.255C157.118 113.288 157.142 112.298 157.357 111.34C157.572 110.382 157.975 109.475 158.542 108.673C159.109 107.87 159.829 107.186 160.661 106.661C161.493 106.136 162.421 105.78 163.391 105.613" fill="#73CCF4"/>
<path d="M283.845 62.6866V38.6385H275.174V35.218H297.284V38.6385H288.272V62.6866H283.845ZM264.852 34.7741C266.177 34.764 267.501 34.8688 268.808 35.0875C269.895 35.264 270.964 35.5349 272.004 35.8969L271.192 39.213C270.184 38.8876 269.15 38.6517 268.1 38.508C267.231 38.4038 266.356 38.3428 265.481 38.3252C264.28 38.2474 263.079 38.4609 261.979 38.9475C260.879 39.4341 259.915 40.1793 259.167 41.1191C257.662 43.4454 256.937 46.1886 257.098 48.9523C257.085 50.3892 257.217 51.8237 257.491 53.2345C257.719 54.4111 258.182 55.53 258.853 56.5244C259.521 57.4435 260.426 58.1652 261.473 58.6133C262.783 59.156 264.194 59.4142 265.612 59.3705H266.895C267.419 59.3705 267.996 59.3705 268.572 59.1877L270.379 58.9266C270.964 58.8242 271.542 58.6847 272.108 58.5089L272.921 61.6683C272.335 61.9101 271.731 62.1022 271.113 62.2427L269.017 62.6605C268.284 62.791 267.576 62.8694 266.817 62.9477C266.057 63.026 265.376 62.9477 264.721 62.9477C262.705 63.0026 260.7 62.6473 258.827 61.9033C257.33 61.2685 256.016 60.2725 255.002 59.005C254.008 57.6955 253.303 56.1919 252.932 54.5922C252.498 52.7618 252.286 50.8856 252.304 49.0045C252.312 47.3778 252.505 45.7573 252.88 44.174C253.234 42.5103 253.91 40.9315 254.871 39.5263C255.861 38.065 257.191 36.8645 258.748 36.0274C260.64 35.0915 262.743 34.6597 264.852 34.7741V34.7741ZM228.962 62.7127V35.2702H233.442V46.3934H237.634C238.082 46.3863 238.529 46.3426 238.97 46.2629C239.455 46.155 239.916 45.9604 240.332 45.6885C240.8 45.3589 241.201 44.9422 241.511 44.4612C241.918 43.7983 242.218 43.0758 242.401 42.3202L244.209 35.2963H248.558L246.698 42.9468C246.451 44.1278 245.951 45.2414 245.231 46.2107C244.602 47.0481 243.748 47.6909 242.768 48.0645C243.425 48.1745 244.055 48.4047 244.628 48.7434C245.141 49.0725 245.6 49.4775 245.99 49.9445C246.357 50.405 246.657 50.9148 246.881 51.4589C247.108 51.9945 247.3 52.544 247.457 53.1039L250.077 62.6866H245.466L243.082 54.07C242.829 52.835 242.219 51.7006 241.327 50.8062C240.363 50.1149 239.185 49.7823 238 49.8662H233.442V62.6866L228.962 62.7127ZM205.542 62.7127V35.218H223.33V38.508H210.232V46.6807H221.339V49.7879H210.127V59.3966H223.933V62.6866L205.542 62.7127ZM188.515 62.7127V38.6385H179.712V35.218H201.823V38.6385H193.047V62.6866L188.515 62.7127ZM171.303 62.7127V49.9967H159.41C159.41 52.1117 159.41 54.2267 159.41 56.3417V62.6866H154.826V35.2702H159.436V40.9102C159.436 42.7379 159.436 44.6179 159.436 46.5501H171.329V35.2702H175.94V62.6866L171.303 62.7127ZM144.714 49.109C144.706 47.8071 144.609 46.5073 144.425 45.2185C144.258 43.9888 143.905 42.7915 143.378 41.6674C142.889 40.6181 142.13 39.717 141.177 39.0563C140.078 38.3544 138.788 38.0078 137.483 38.0641C136.162 38.0129 134.853 38.339 133.711 39.0041C132.713 39.651 131.908 40.5527 131.379 41.6152C130.784 42.7203 130.394 43.9232 130.227 45.1662C129.992 46.5287 129.878 47.9093 129.886 49.2917C129.712 52.016 130.321 54.7332 131.641 57.125C132.301 58.0318 133.187 58.7502 134.212 59.2084C135.238 59.6666 136.365 59.8486 137.483 59.7361C138.623 59.7613 139.747 59.4721 140.732 58.9005C141.648 58.3483 142.42 57.5877 142.985 56.6811C143.597 55.6436 144.039 54.5154 144.294 53.3389C144.576 51.9465 144.717 50.5294 144.714 49.109V49.109ZM149.481 49.109C149.505 50.99 149.249 52.8642 148.722 54.6706C148.263 56.2804 147.498 57.7874 146.469 59.1094C145.46 60.3798 144.168 61.3989 142.696 62.086C141.053 62.8304 139.262 63.1963 137.457 63.1566C135.529 63.2062 133.612 62.8596 131.825 62.1383C130.342 61.5287 129.037 60.5593 128.026 59.3183C126.982 57.9967 126.24 56.464 125.852 54.8272C125.359 52.9616 125.121 51.0381 125.145 49.109C125.142 47.2601 125.371 45.4181 125.826 43.6257C126.228 41.9748 126.959 40.4211 127.974 39.0563C128.974 37.7239 130.288 36.6569 131.799 35.9491C133.576 35.1208 135.522 34.7185 137.483 34.7741C139.437 34.7097 141.377 35.1126 143.142 35.9491C144.599 36.6738 145.857 37.74 146.809 39.0563C147.787 40.4074 148.473 41.9453 148.826 43.5735C149.244 45.3534 149.446 47.1767 149.429 49.0045L149.481 49.109ZM101.856 62.6866V35.2702H106.362V46.3934H110.527C110.984 46.3876 111.439 46.3439 111.889 46.2629C112.368 46.1596 112.821 45.9645 113.225 45.6885C113.7 45.3659 114.101 44.9479 114.404 44.4612C114.82 43.7999 115.13 43.0774 115.321 42.3202L117.128 35.2963H121.451L119.617 42.9468C119.374 44.1335 118.863 45.2496 118.124 46.2107C117.504 47.0462 116.659 47.6891 115.688 48.0645C116.343 48.179 116.973 48.4089 117.548 48.7434C118.059 49.064 118.511 49.4704 118.884 49.9445C119.268 50.3976 119.577 50.9088 119.8 51.4589C120.01 52.0073 120.22 52.5556 120.377 53.1039L122.996 62.6866H118.36L116.002 54.07C115.751 52.8282 115.13 51.6906 114.221 50.8062C113.258 50.1108 112.079 49.7777 110.894 49.8662H106.362V62.6866H101.856Z" fill="#1A1A18"/>
<path d="M289.215 79.8154C288.141 79.8154 287.198 79.3454 287.198 78.2226C287.179 77.9869 287.214 77.7501 287.301 77.5299C287.387 77.3097 287.522 77.1118 287.696 76.9511C287.87 76.7903 288.078 76.6709 288.305 76.6017C288.531 76.5325 288.771 76.5153 289.005 76.5515H290.472V79.8154H289.215ZM284.866 84.3848C285.451 84.3934 286.028 84.2483 286.538 83.9641C287.049 83.6799 287.475 83.2666 287.774 82.7659L288.822 81.1992H290.472V84.2281H292.175V75.1937H288.874C288.444 75.1421 288.008 75.1818 287.595 75.3104C287.181 75.439 286.8 75.6534 286.476 75.9396C286.151 76.2258 285.892 76.5772 285.714 76.9707C285.536 77.3642 285.443 77.7909 285.443 78.2226C285.433 78.7574 285.589 79.2822 285.889 79.7258C286.189 80.1695 286.618 80.5106 287.119 80.7031C287.119 80.7031 286.569 81.617 286.517 81.6692C286.316 82.0056 286.043 82.2928 285.717 82.5098C285.39 82.7267 285.019 82.8678 284.63 82.9225L284.866 84.3848ZM274.545 84.2542H276.248L280.098 78.8231L280.858 77.5698V84.2542H282.561V75.1937H280.858L277.007 80.6509L276.248 81.8781V75.1937H274.545V84.2542ZM264.066 84.2542H265.769V80.3376H269.934V84.1498H271.663V75.1937H269.934V78.9798H265.743V75.1937H264.04L264.066 84.2542ZM256.05 79.032C256.05 77.2826 257.045 76.421 258.277 76.421C259.508 76.421 260.137 77.4915 260.137 79.032H256.05ZM258.669 84.4892C259.68 84.4942 260.686 84.3535 261.656 84.0714L261.368 82.7137C260.612 82.905 259.84 83.0274 259.062 83.0792C257.307 83.0792 255.997 82.6875 255.945 80.2331H261.865V79.6326C261.865 76.7343 260.818 75.1154 258.434 75.1154C256.05 75.1154 254.216 76.186 254.216 79.8154C254.216 83.4448 255.971 84.3848 258.696 84.3848L258.669 84.4892ZM240.463 84.3064H251.989V75.1937H250.287V82.792H247.117V75.1937H245.388V82.792H242.192V75.1937H240.489L240.463 84.3064ZM232.447 79.0843C232.447 77.3348 233.442 76.4732 234.673 76.4732C235.904 76.4732 236.533 77.5437 236.533 79.0843H232.447ZM235.066 84.5414C236.077 84.5464 237.083 84.4057 238.053 84.1236L237.791 82.7659C237.026 82.9552 236.246 83.0776 235.459 83.1314C233.704 83.1314 232.394 82.7398 232.368 80.2854H238.262V79.6848C238.262 76.7865 237.241 75.1676 234.83 75.1676C232.42 75.1676 230.639 76.3948 230.639 80.0242C230.639 83.6536 232.447 84.3848 235.145 84.3848L235.066 84.5414ZM224.587 83.1575C224.025 83.1584 223.464 83.1059 222.911 83.0009V77.0998C223.518 76.7771 224.189 76.59 224.876 76.5515C226.788 76.5515 227.312 77.9093 227.312 79.7109C227.312 81.5126 226.369 82.9487 224.587 82.9487V83.1575ZM221.208 87.753H222.911V84.202C223.44 84.2814 223.974 84.325 224.509 84.3325C226.867 84.3325 229.041 83.1053 229.041 79.3454C229.041 76.4471 227.679 74.9849 225.321 74.9849C224.444 75.0412 223.604 75.3597 222.911 75.8987V75.1937H221.208V87.753ZM209.524 78.8754C209.524 77.1259 210.52 76.2643 211.751 76.2643C212.982 76.2643 213.611 77.3348 213.611 78.8754H209.524ZM212.301 84.3848C213.312 84.3897 214.318 84.249 215.288 83.967L214.921 82.557C214.165 82.7484 213.394 82.8707 212.616 82.9225C210.86 82.9225 209.551 82.5309 209.524 80.0765H215.419V79.4759C215.419 76.5776 214.397 74.9587 211.987 74.9587C209.577 74.9587 207.795 76.186 207.795 79.8154C207.795 83.4448 209.498 84.3848 212.301 84.3848ZM203.892 84.202H205.621V75.1937H203.892V84.202ZM195.745 84.202H199.674C200.068 84.2241 200.462 84.164 200.831 84.0256C201.199 83.8871 201.535 83.6734 201.816 83.3981C202.098 83.1227 202.318 82.7919 202.463 82.4267C202.609 82.0616 202.676 81.6701 202.661 81.2776C202.661 79.3192 201.299 78.3009 198.967 78.3009H197.841V79.6587H198.836C200.067 79.6587 200.906 80.0765 200.906 81.2514C200.906 82.4264 200.303 82.8442 199.177 82.8442H197.448V75.1937H195.745V84.202ZM185.266 84.202H186.995V80.3376H191.239V84.1498H192.942V75.1937H191.239V78.9798H186.864V75.1937H185.135L185.266 84.202ZM172.482 84.202H174.132V79.1626V77.3609L176.412 84.1759H178.245L180.865 77.387V79.1626V84.1759H182.489V75.1937H180.289L177.407 82.8442L174.787 75.1937H172.508L172.482 84.202ZM159.724 84.202H161.348V79.1626V77.3609L163.628 84.1759H165.697L168.317 77.387V79.1626V84.1759H169.941V75.1937H167.767L164.859 82.8442L162.239 75.1937H159.986L159.724 84.202ZM152.442 82.9748C151.577 82.9748 151.001 82.6353 151.001 81.617C151.001 80.5987 151.708 80.2331 152.939 80.207H154.852V82.2959C154.054 82.6678 153.19 82.8807 152.311 82.9225L152.442 82.9748ZM152.022 84.3325C153.11 84.3097 154.155 83.913 154.983 83.2098C155.14 83.9931 156.083 84.3064 156.921 84.3064H157.288V82.9748C156.869 82.9748 156.45 82.8181 156.45 82.2698V77.5698C156.45 75.7421 155.271 74.9587 153.044 74.9587C151.987 74.9585 150.939 75.1532 149.953 75.5332L150.293 76.8387C151.069 76.6082 151.869 76.468 152.677 76.421C154.118 76.421 154.773 76.6821 154.773 77.9354V78.9276H152.808C151.237 78.9276 149.246 79.3976 149.246 81.5387C149.167 81.9106 149.179 82.2959 149.28 82.6623C149.382 83.0287 149.57 83.3654 149.829 83.6442C150.089 83.9231 150.411 84.1358 150.77 84.2647C151.129 84.3935 151.513 84.4347 151.891 84.3848L152.022 84.3325ZM143.325 83.0009C142.763 83.0002 142.201 82.9477 141.648 82.8442V77.0998C142.249 76.7452 142.919 76.5226 143.613 76.4471C145.552 76.4471 146.05 77.8048 146.05 79.6065C146.05 81.4081 145.002 82.9487 143.194 82.9487L143.325 83.0009ZM139.946 87.8053H141.57V84.202C142.108 84.2824 142.65 84.326 143.194 84.3325C145.552 84.3325 147.726 83.1053 147.726 79.3454C147.726 76.4471 146.364 74.9849 143.98 74.9849C143.104 75.0459 142.265 75.3639 141.57 75.8987V75.1937H139.867L139.946 87.8053ZM132.087 84.202H133.711V76.5515H137.929V75.1937H131.929L132.087 84.202ZM125.642 83.0009C123.73 83.0009 123.023 81.5126 123.023 79.737C123.023 77.9615 123.573 76.3948 125.642 76.3948C127.712 76.3948 128.131 78.1181 128.131 79.7109C128.131 81.3037 127.45 82.9487 125.485 82.9487L125.642 83.0009ZM125.642 84.3848C126.249 84.4125 126.855 84.3075 127.417 84.0772C127.979 83.8468 128.484 83.4967 128.896 83.0513C129.308 82.606 129.617 82.0762 129.801 81.4991C129.986 80.9221 130.042 80.3117 129.965 79.7109C129.965 76.7604 128.603 75.011 125.773 75.011C125.161 75.0021 124.554 75.1247 123.993 75.3704C123.432 75.616 122.931 75.979 122.524 76.4347C122.116 76.8904 121.812 77.4282 121.631 78.0115C121.451 78.5948 121.398 79.21 121.477 79.8154C121.395 80.3774 121.434 80.9503 121.592 81.4961C121.75 82.0418 122.022 82.5477 122.392 82.9801C122.761 83.4125 123.219 83.7615 123.734 84.0037C124.249 84.2459 124.811 84.3758 125.38 84.3848H125.642ZM115.347 83.0009C114.784 83.0017 114.223 82.9492 113.67 82.8442V77.0998C114.198 76.811 114.776 76.6249 115.373 76.5515C117.285 76.5515 117.809 77.9093 117.809 79.7109C117.809 81.5126 116.893 82.9487 115.085 82.9487L115.347 83.0009ZM111.706 87.753H113.408V84.202C113.946 84.2824 114.489 84.326 115.033 84.3325C117.364 84.3325 119.538 83.1053 119.538 79.3454C119.538 76.4471 118.176 74.9849 115.818 74.9849C114.942 75.0459 114.104 75.3639 113.408 75.8987V75.1937H111.706V87.753ZM101.227 84.1498H102.93V76.5515H107.016V84.1759H108.719V75.1937H101.358L101.227 84.1498Z" fill="#1A1A18"/>
<path d="M9.6693 22.4234L45.8732 48.1687L116.945 5.37305L120.639 11.483L47.5498 55.4797L45.5589 56.7069L43.6203 55.3492L5.53021 28.22L9.6693 22.4234Z" fill="#73CBF3"/>
<path d="M48.9904 51.0151L68.376 95.3774L162.58 108.302L161.637 115.378L65.442 102.166L63.4248 101.905L62.6389 100.051L42.4412 53.8612L48.9904 51.0151Z" fill="#73CBF3"/>
<path fill-rule="evenodd" clip-rule="evenodd" d="M6.31589 17.9588C7.77641 17.7268 9.27315 17.9308 10.6176 18.5451C11.962 19.1594 13.0939 20.1566 13.8707 21.411C14.6475 22.6654 15.0345 24.1208 14.9829 25.594C14.9313 27.0672 14.4434 28.4923 13.5807 29.6896C12.718 30.8869 11.519 31.8029 10.1349 32.3223C8.75077 32.8416 7.24339 32.9411 5.80267 32.6081C4.36195 32.2751 3.05234 31.5245 2.03882 30.451C1.0253 29.3775 0.353222 28.029 0.107256 26.5754C-0.227178 24.6263 0.227611 22.6246 1.37187 21.0093C2.51613 19.394 4.25645 18.297 6.2111 17.9588" fill="#73CBF3"/>
<path fill-rule="evenodd" clip-rule="evenodd" d="M44.4322 45.2184C45.893 44.9657 47.3961 45.1507 48.7514 45.7499C50.1066 46.3491 51.2531 47.3356 52.0456 48.5845C52.838 49.8335 53.2409 51.2887 53.2032 52.766C53.1655 54.2432 52.689 55.6761 51.8338 56.8833C50.9787 58.0905 49.7834 59.0177 48.3993 59.5474C47.0153 60.0772 45.5046 60.1858 44.0586 59.8594C42.6126 59.533 41.2963 58.7863 40.2762 57.7139C39.2562 56.6415 38.5783 55.2916 38.3283 53.835C38.1556 52.8691 38.1768 51.8787 38.3908 50.9211C38.6048 49.9635 39.0073 49.0577 39.5751 48.2563C40.1428 47.4549 40.8644 46.7737 41.6982 46.2522C42.5319 45.7307 43.4612 45.3793 44.4322 45.2184" fill="#73CBF3"/>
<path fill-rule="evenodd" clip-rule="evenodd" d="M117.26 0.829945C118.719 0.578329 120.221 0.763634 121.575 1.36244C122.929 1.96125 124.075 2.94668 124.867 4.19421C125.659 5.44173 126.063 6.89536 126.026 8.37139C125.99 9.84741 125.516 11.2796 124.663 12.4869C123.81 13.6943 122.618 14.6226 121.236 15.1545C119.854 15.6865 118.345 15.7983 116.899 15.4757C115.454 15.1531 114.137 14.4106 113.114 13.3422C112.092 12.2737 111.41 10.9271 111.156 9.47263C110.821 7.52048 111.275 5.51557 112.419 3.89609C113.562 2.2766 115.303 1.17425 117.26 0.829945" fill="#73CBF3"/>
<path fill-rule="evenodd" clip-rule="evenodd" d="M64.8394 89.8939C66.3002 89.6412 67.8033 89.8262 69.1586 90.4254C70.5139 91.0246 71.6603 92.0111 72.4528 93.2601C73.2452 94.509 73.6481 95.9642 73.6104 97.4415C73.5728 98.9188 73.0962 100.352 72.241 101.559C71.3859 102.766 70.1906 103.693 68.8066 104.223C67.4225 104.753 65.9118 104.861 64.4658 104.535C63.0198 104.209 61.7035 103.462 60.6834 102.389C59.6634 101.317 58.9855 99.9671 58.7355 98.5105C58.4082 96.5624 58.8659 94.5642 60.0089 92.9506C61.152 91.337 62.888 90.2385 64.8394 89.8939Z" fill="#73CBF3"/>
<path fill-rule="evenodd" clip-rule="evenodd" d="M163.26 105.613C164.72 105.335 166.229 105.497 167.597 106.076C168.964 106.656 170.127 107.628 170.939 108.868C171.751 110.108 172.175 111.561 172.156 113.042C172.137 114.523 171.677 115.965 170.834 117.184C169.991 118.404 168.804 119.346 167.422 119.891C166.041 120.437 164.528 120.56 163.076 120.246C161.624 119.932 160.298 119.195 159.268 118.128C158.237 117.062 157.548 115.713 157.288 114.255C157.118 113.288 157.142 112.298 157.357 111.34C157.572 110.382 157.975 109.475 158.542 108.673C159.109 107.87 159.829 107.186 160.661 106.661C161.493 106.136 162.421 105.78 163.391 105.613" fill="#73CBF3"/>
<path d="M283.845 62.6866V38.6385H275.174V35.218H297.284V38.6385H288.272V62.6866H283.845ZM264.852 34.7741C266.177 34.764 267.501 34.8688 268.808 35.0875C269.895 35.264 270.964 35.5349 272.004 35.8969L271.192 39.213C270.184 38.8876 269.15 38.6517 268.1 38.508C267.231 38.4038 266.356 38.3428 265.481 38.3252C264.28 38.2474 263.079 38.4609 261.979 38.9475C260.879 39.4341 259.915 40.1793 259.167 41.1191C257.662 43.4454 256.937 46.1886 257.098 48.9523C257.085 50.3892 257.217 51.8237 257.491 53.2345C257.719 54.4111 258.182 55.53 258.853 56.5244C259.521 57.4435 260.426 58.1652 261.473 58.6133C262.783 59.156 264.194 59.4142 265.612 59.3705H266.895C267.419 59.3705 267.996 59.3705 268.572 59.1877L270.379 58.9266C270.964 58.8242 271.542 58.6847 272.108 58.5089L272.921 61.6683C272.335 61.9101 271.731 62.1022 271.113 62.2427L269.017 62.6605C268.284 62.791 267.576 62.8694 266.817 62.9477C266.057 63.026 265.376 62.9477 264.721 62.9477C262.705 63.0026 260.7 62.6473 258.827 61.9033C257.33 61.2685 256.016 60.2725 255.002 59.005C254.008 57.6955 253.303 56.1919 252.932 54.5922C252.498 52.7618 252.286 50.8856 252.304 49.0045C252.312 47.3778 252.505 45.7573 252.88 44.174C253.234 42.5103 253.91 40.9315 254.871 39.5263C255.861 38.065 257.191 36.8645 258.748 36.0274C260.64 35.0915 262.743 34.6597 264.852 34.7741V34.7741ZM228.962 62.7127V35.2702H233.442V46.3934H237.634C238.082 46.3863 238.529 46.3426 238.97 46.2629C239.455 46.155 239.916 45.9604 240.332 45.6885C240.8 45.3589 241.201 44.9422 241.511 44.4612C241.918 43.7983 242.218 43.0758 242.401 42.3202L244.209 35.2963H248.558L246.698 42.9468C246.451 44.1278 245.951 45.2414 245.231 46.2107C244.602 47.0481 243.748 47.6909 242.768 48.0645C243.425 48.1745 244.055 48.4047 244.628 48.7434C245.141 49.0725 245.6 49.4775 245.99 49.9445C246.357 50.405 246.657 50.9148 246.881 51.4589C247.108 51.9945 247.3 52.544 247.457 53.1039L250.077 62.6866H245.466L243.082 54.07C242.829 52.835 242.219 51.7006 241.327 50.8062C240.363 50.1149 239.185 49.7823 238 49.8662H233.442V62.6866L228.962 62.7127ZM205.542 62.7127V35.218H223.33V38.508H210.232V46.6807H221.339V49.7879H210.127V59.3966H223.933V62.6866L205.542 62.7127ZM188.515 62.7127V38.6385H179.712V35.218H201.823V38.6385H193.047V62.6866L188.515 62.7127ZM171.303 62.7127V49.9967H159.41C159.41 52.1117 159.41 54.2267 159.41 56.3417V62.6866H154.826V35.2702H159.436V40.9102C159.436 42.7379 159.436 44.6179 159.436 46.5501H171.329V35.2702H175.94V62.6866L171.303 62.7127ZM144.714 49.109C144.706 47.8071 144.609 46.5073 144.425 45.2185C144.258 43.9888 143.905 42.7915 143.378 41.6674C142.889 40.6181 142.13 39.717 141.177 39.0563C140.078 38.3544 138.788 38.0078 137.483 38.0641C136.162 38.0129 134.853 38.339 133.711 39.0041C132.713 39.651 131.908 40.5527 131.379 41.6152C130.784 42.7203 130.394 43.9232 130.227 45.1662C129.992 46.5287 129.878 47.9093 129.886 49.2917C129.712 52.016 130.321 54.7332 131.641 57.125C132.301 58.0318 133.187 58.7502 134.212 59.2084C135.238 59.6666 136.365 59.8486 137.483 59.7361C138.623 59.7613 139.747 59.4721 140.732 58.9005C141.648 58.3483 142.42 57.5877 142.985 56.6811C143.597 55.6436 144.039 54.5154 144.294 53.3389C144.576 51.9465 144.717 50.5294 144.714 49.109V49.109ZM149.481 49.109C149.505 50.99 149.249 52.8642 148.722 54.6706C148.263 56.2804 147.498 57.7874 146.469 59.1094C145.46 60.3798 144.168 61.3989 142.696 62.086C141.053 62.8304 139.262 63.1963 137.457 63.1566C135.529 63.2062 133.612 62.8596 131.825 62.1383C130.342 61.5287 129.037 60.5593 128.026 59.3183C126.982 57.9967 126.24 56.464 125.852 54.8272C125.359 52.9616 125.121 51.0381 125.145 49.109C125.142 47.2601 125.371 45.4181 125.826 43.6257C126.228 41.9748 126.959 40.4211 127.974 39.0563C128.974 37.7239 130.288 36.6569 131.799 35.9491C133.576 35.1208 135.522 34.7185 137.483 34.7741C139.437 34.7097 141.377 35.1126 143.142 35.9491C144.599 36.6738 145.857 37.74 146.809 39.0563C147.787 40.4074 148.473 41.9453 148.826 43.5735C149.244 45.3534 149.446 47.1767 149.429 49.0045L149.481 49.109ZM101.856 62.6866V35.2702H106.362V46.3934H110.527C110.984 46.3876 111.439 46.3439 111.889 46.2629C112.368 46.1596 112.821 45.9645 113.225 45.6885C113.7 45.3659 114.101 44.9479 114.404 44.4612C114.82 43.7999 115.13 43.0774 115.321 42.3202L117.128 35.2963H121.451L119.617 42.9468C119.374 44.1335 118.863 45.2496 118.124 46.2107C117.504 47.0462 116.659 47.6891 115.688 48.0645C116.343 48.179 116.973 48.4089 117.548 48.7434C118.059 49.064 118.511 49.4704 118.884 49.9445C119.268 50.3976 119.577 50.9088 119.8 51.4589C120.01 52.0073 120.22 52.5556 120.377 53.1039L122.996 62.6866H118.36L116.002 54.07C115.751 52.8282 115.13 51.6906 114.221 50.8062C113.258 50.1108 112.079 49.7777 110.894 49.8662H106.362V62.6866H101.856Z" fill="black"/>
<path d="M289.215 79.8154C288.141 79.8154 287.198 79.3454 287.198 78.2226C287.179 77.9869 287.214 77.7501 287.301 77.5299C287.387 77.3097 287.522 77.1118 287.696 76.9511C287.87 76.7903 288.078 76.6709 288.305 76.6017C288.531 76.5325 288.771 76.5153 289.005 76.5515H290.472V79.8154H289.215ZM284.866 84.3848C285.451 84.3934 286.028 84.2483 286.538 83.9641C287.049 83.6799 287.475 83.2666 287.774 82.7659L288.822 81.1992H290.472V84.2281H292.175V75.1937H288.874C288.444 75.1421 288.008 75.1818 287.595 75.3104C287.181 75.439 286.8 75.6534 286.476 75.9396C286.151 76.2258 285.892 76.5772 285.714 76.9707C285.536 77.3642 285.443 77.7909 285.443 78.2226C285.433 78.7574 285.589 79.2822 285.889 79.7258C286.189 80.1695 286.618 80.5106 287.119 80.7031C287.119 80.7031 286.569 81.617 286.517 81.6692C286.316 82.0056 286.043 82.2928 285.717 82.5098C285.39 82.7267 285.019 82.8678 284.63 82.9225L284.866 84.3848ZM274.545 84.2542H276.248L280.098 78.8231L280.858 77.5698V84.2542H282.561V75.1937H280.858L277.007 80.6509L276.248 81.8781V75.1937H274.545V84.2542ZM264.066 84.2542H265.769V80.3376H269.934V84.1498H271.663V75.1937H269.934V78.9798H265.743V75.1937H264.04L264.066 84.2542ZM256.05 79.032C256.05 77.2826 257.045 76.421 258.277 76.421C259.508 76.421 260.137 77.4915 260.137 79.032H256.05ZM258.669 84.4892C259.68 84.4942 260.686 84.3535 261.656 84.0714L261.368 82.7137C260.612 82.905 259.84 83.0274 259.062 83.0792C257.307 83.0792 255.997 82.6875 255.945 80.2331H261.865V79.6326C261.865 76.7343 260.818 75.1154 258.434 75.1154C256.05 75.1154 254.216 76.186 254.216 79.8154C254.216 83.4448 255.971 84.3848 258.696 84.3848L258.669 84.4892ZM240.463 84.3064H251.989V75.1937H250.287V82.792H247.117V75.1937H245.388V82.792H242.192V75.1937H240.489L240.463 84.3064ZM232.447 79.0843C232.447 77.3348 233.442 76.4732 234.673 76.4732C235.904 76.4732 236.533 77.5437 236.533 79.0843H232.447ZM235.066 84.5414C236.077 84.5464 237.083 84.4057 238.053 84.1236L237.791 82.7659C237.026 82.9552 236.246 83.0776 235.459 83.1314C233.704 83.1314 232.394 82.7398 232.368 80.2854H238.262V79.6848C238.262 76.7865 237.241 75.1676 234.83 75.1676C232.42 75.1676 230.639 76.3948 230.639 80.0242C230.639 83.6536 232.447 84.3848 235.145 84.3848L235.066 84.5414ZM224.587 83.1575C224.025 83.1584 223.464 83.1059 222.911 83.0009V77.0998C223.518 76.7771 224.189 76.59 224.876 76.5515C226.788 76.5515 227.312 77.9093 227.312 79.7109C227.312 81.5126 226.369 82.9487 224.587 82.9487V83.1575ZM221.208 87.753H222.911V84.202C223.44 84.2814 223.974 84.325 224.509 84.3325C226.867 84.3325 229.041 83.1053 229.041 79.3454C229.041 76.4471 227.679 74.9849 225.321 74.9849C224.444 75.0412 223.604 75.3597 222.911 75.8987V75.1937H221.208V87.753ZM209.524 78.8754C209.524 77.1259 210.52 76.2643 211.751 76.2643C212.982 76.2643 213.611 77.3348 213.611 78.8754H209.524ZM212.301 84.3848C213.312 84.3897 214.318 84.249 215.288 83.967L214.921 82.557C214.165 82.7484 213.394 82.8707 212.616 82.9225C210.86 82.9225 209.551 82.5309 209.524 80.0765H215.419V79.4759C215.419 76.5776 214.397 74.9587 211.987 74.9587C209.577 74.9587 207.795 76.186 207.795 79.8154C207.795 83.4448 209.498 84.3848 212.301 84.3848ZM203.892 84.202H205.621V75.1937H203.892V84.202ZM195.745 84.202H199.674C200.068 84.2241 200.462 84.164 200.831 84.0256C201.199 83.8871 201.535 83.6734 201.816 83.3981C202.098 83.1227 202.318 82.7919 202.463 82.4267C202.609 82.0616 202.676 81.6701 202.661 81.2776C202.661 79.3192 201.299 78.3009 198.967 78.3009H197.841V79.6587H198.836C200.067 79.6587 200.906 80.0765 200.906 81.2514C200.906 82.4264 200.303 82.8442 199.177 82.8442H197.448V75.1937H195.745V84.202ZM185.266 84.202H186.995V80.3376H191.239V84.1498H192.942V75.1937H191.239V78.9798H186.864V75.1937H185.135L185.266 84.202ZM172.482 84.202H174.132V79.1626V77.3609L176.412 84.1759H178.245L180.865 77.387V79.1626V84.1759H182.489V75.1937H180.289L177.407 82.8442L174.787 75.1937H172.508L172.482 84.202ZM159.724 84.202H161.348V79.1626V77.3609L163.628 84.1759H165.697L168.317 77.387V79.1626V84.1759H169.941V75.1937H167.767L164.859 82.8442L162.239 75.1937H159.986L159.724 84.202ZM152.442 82.9748C151.577 82.9748 151.001 82.6353 151.001 81.617C151.001 80.5987 151.708 80.2331 152.939 80.207H154.852V82.2959C154.054 82.6678 153.19 82.8807 152.311 82.9225L152.442 82.9748ZM152.022 84.3325C153.11 84.3097 154.155 83.913 154.983 83.2098C155.14 83.9931 156.083 84.3064 156.921 84.3064H157.288V82.9748C156.869 82.9748 156.45 82.8181 156.45 82.2698V77.5698C156.45 75.7421 155.271 74.9587 153.044 74.9587C151.987 74.9585 150.939 75.1532 149.953 75.5332L150.293 76.8387C151.069 76.6082 151.869 76.468 152.677 76.421C154.118 76.421 154.773 76.6821 154.773 77.9354V78.9276H152.808C151.237 78.9276 149.246 79.3976 149.246 81.5387C149.167 81.9106 149.179 82.2959 149.28 82.6623C149.382 83.0287 149.57 83.3654 149.829 83.6442C150.089 83.9231 150.411 84.1358 150.77 84.2647C151.129 84.3935 151.513 84.4347 151.891 84.3848L152.022 84.3325ZM143.325 83.0009C142.763 83.0002 142.201 82.9477 141.648 82.8442V77.0998C142.249 76.7452 142.919 76.5226 143.613 76.4471C145.552 76.4471 146.05 77.8048 146.05 79.6065C146.05 81.4081 145.002 82.9487 143.194 82.9487L143.325 83.0009ZM139.946 87.8053H141.57V84.202C142.108 84.2824 142.65 84.326 143.194 84.3325C145.552 84.3325 147.726 83.1053 147.726 79.3454C147.726 76.4471 146.364 74.9849 143.98 74.9849C143.104 75.0459 142.265 75.3639 141.57 75.8987V75.1937H139.867L139.946 87.8053ZM132.087 84.202H133.711V76.5515H137.929V75.1937H131.929L132.087 84.202ZM125.642 83.0009C123.73 83.0009 123.023 81.5126 123.023 79.737C123.023 77.9615 123.573 76.3948 125.642 76.3948C127.712 76.3948 128.131 78.1181 128.131 79.7109C128.131 81.3037 127.45 82.9487 125.485 82.9487L125.642 83.0009ZM125.642 84.3848C126.249 84.4125 126.855 84.3075 127.417 84.0772C127.979 83.8468 128.484 83.4967 128.896 83.0513C129.308 82.606 129.617 82.0762 129.801 81.4991C129.986 80.9221 130.042 80.3117 129.965 79.7109C129.965 76.7604 128.603 75.011 125.773 75.011C125.161 75.0021 124.554 75.1247 123.993 75.3704C123.432 75.616 122.931 75.979 122.524 76.4347C122.116 76.8904 121.812 77.4282 121.631 78.0115C121.451 78.5948 121.398 79.21 121.477 79.8154C121.395 80.3774 121.434 80.9503 121.592 81.4961C121.75 82.0418 122.022 82.5477 122.392 82.9801C122.761 83.4125 123.219 83.7615 123.734 84.0037C124.249 84.2459 124.811 84.3758 125.38 84.3848H125.642ZM115.347 83.0009C114.784 83.0017 114.223 82.9492 113.67 82.8442V77.0998C114.198 76.811 114.776 76.6249 115.373 76.5515C117.285 76.5515 117.809 77.9093 117.809 79.7109C117.809 81.5126 116.893 82.9487 115.085 82.9487L115.347 83.0009ZM111.706 87.753H113.408V84.202C113.946 84.2824 114.489 84.326 115.033 84.3325C117.364 84.3325 119.538 83.1053 119.538 79.3454C119.538 76.4471 118.176 74.9849 115.818 74.9849C114.942 75.0459 114.104 75.3639 113.408 75.8987V75.1937H111.706V87.753ZM101.227 84.1498H102.93V76.5515H107.016V84.1759H108.719V75.1937H101.358L101.227 84.1498Z" fill="black"/>
</svg>
