<svg width="1600" height="2484" viewBox="0 0 1600 2484" fill="none" xmlns="http://www.w3.org/2000/svg">
<g opacity="0.8">
<path d="M222.522 2279.76L-575.101 980.142L283.471 1023.67L583.688 1488.12L392.444 1791.99L-91.376 2185.1L-941.929 1406.78L-1280.17 2421.93L-768.233 2103.36L265.545 1458.1L-162.42 1002.55L-263.468 1435.39L-559.345 2482.97L-768.233 2103.36L-1490 1962.08L-941.929 1406.78L265.734 1458.5L992.218 762.923L1333.48 1559.26L265.545 1458.1L572.933 2267.25L760.403 1770.28L611.05 895.596L1926.46 722.601L1276.11 1118.72L1622.56 1580.07L2056.56 1291.91L618.692 899.998L1332.82 1558.86L1219.6 678.376L1514.06 129.175L2705.31 631.651L3056 1.30493L1796.35 497.177L2322.63 1120.52L2056.94 1291.91L1796.35 497.177L1219.41 678.577L2986.56 934.517L2498.02 207.118L2322.63 1120.52L2705.31 631.651L3020.62 729.705L196.576 216.123L1254.32 1963.68L872.49 114.267L-641.806 704.591L414.899 974.739L542.269 119.27C542.269 119.27 -387.064 -45.8209 -306.868 64.2395C-226.672 174.3 414.899 974.739 414.899 974.739L-613.501 1359.95L1952.78 1820.2L1801.82 874.684L196.576 216.123" stroke="#73CBF3" stroke-width="0.7" stroke-miterlimit="22.93"/>
<path d="M1274.94 661.029L1771.57 504.895L1794.46 509.121L1831.82 623.101L1867.11 730.893L1832.23 735.813L1832.23 735.813L1718.33 752.012L1375.69 702.403L1274.94 661.029Z" fill="#62B12D" fill-opacity="0.5" stroke="#73CCF4"/>
<path d="M413.379 973.582L-640.369 704.19L-0.591431 454.752C98.0762 578.983 201.761 708.93 280.799 807.846C320.349 857.342 353.728 899.068 377.219 928.42C388.965 943.096 398.239 954.678 404.576 962.592C407.745 966.549 410.179 969.588 411.822 971.639L413.379 973.582Z" fill="#62B12D" fill-opacity="0.5" stroke="#73CCF4"/>
<path d="M192 1959L124.5 2013.5L395 2082.5L462.5 2062.5L192 1959Z" fill="#73CBF3"/>
</g>
<rect x="1229" y="811" width="16" height="16" rx="8" fill="#73CBF3"/>
<rect x="1324" y="1558" width="16" height="16" rx="8" fill="#73CBF3"/>
<rect x="1249" y="1967" width="16" height="16" rx="8" fill="#73CBF3"/>
<rect x="1478" y="1757" width="16" height="16" rx="8" fill="#73CBF3"/>
</svg>
